<svg width="180" height="160" viewBox="0 0 180 160" fill="none" xmlns="http://www.w3.org/2000/svg">
<path d="M45.4057 129.752C39.3787 135.278 31.7899 142.716 32.7837 143.412C33.3485 143.811 40.1488 136.774 46.6626 130.53L45.4057 129.752Z" fill="#27A376"/>
<path d="M17.815 130.226C17.7065 128.174 19.1895 126.877 19.6588 128.049C20.1281 129.221 21.0687 129.459 21.538 128.754C21.598 128.604 21.626 128.443 21.6205 128.282C21.615 128.121 21.5761 127.962 21.506 127.818C21.4359 127.672 21.3365 127.543 21.2138 127.438C21.0911 127.334 20.9481 127.256 20.7937 127.209C20.6249 127.189 20.4665 127.118 20.3406 127.004C20.2149 126.89 20.1279 126.738 20.0919 126.573C20.0559 126.407 20.0727 126.234 20.1399 126.078C20.2072 125.921 20.3217 125.79 20.467 125.703C22.2243 124.689 25.2002 124.778 24.9869 125.932C24.7889 127.001 20.1368 131.88 19.7627 132.254C18.4319 133.585 17.9045 131.941 17.815 130.226Z" fill="#27A376"/>
<path d="M18.7737 125.201C18.7743 125.722 18.5738 126.223 18.2141 126.6C17.8545 126.976 17.3634 127.198 16.8431 127.222C16.272 127.202 15.7282 126.972 15.3161 126.576C14.9039 126.18 14.6521 125.646 14.6089 125.076C14.6527 122.35 18.7746 122.574 18.7737 125.201Z" fill="#27A376"/>
<path d="M35.9136 144.652C35.5757 145.295 36.1773 145.643 36.7304 145.14C39.7355 142.411 46.0368 136.315 49.9626 132.577L49.0354 131.93C44.0758 136.175 36.631 143.286 35.9136 144.652Z" fill="#27A376"/>
<path d="M34.9578 122.562C28.9918 128.051 21.7128 135.217 22.6881 135.899C23.2401 136.286 29.7493 129.573 36.1255 123.44L34.9578 122.562Z" fill="#27A376"/>
<path d="M25.8172 137.138C25.4792 137.781 26.0808 138.13 26.6349 137.627C29.488 135.04 35.2994 129.425 39.2397 125.661L38.3383 124.934C33.3988 129.215 26.5069 135.826 25.8172 137.138Z" fill="#27A376"/>
<path fill-rule="evenodd" clip-rule="evenodd" d="M20.093 114.111C12.2683 118.318 4.37803 123.255 0.301955 127.759C-0.434421 128.572 0.0358364 128.824 3.28962 130.563C8.54965 133.373 21.0838 140.071 47.5541 159.317C48.2915 159.854 48.3529 159.792 49.6208 158.519C51.3141 156.82 55.1595 152.961 65.6413 145.481C65.9947 145.229 66.34 144.983 66.6775 144.743C66.1777 144.422 65.6374 144.072 65.0529 143.693C57.07 149.295 52.5002 152.953 48.4547 157.418C47.9473 157.978 46.5499 156.876 43.4814 154.457C38.3877 150.442 28.6891 142.795 10.8115 133.092C3.49945 129.124 2.00727 128.603 2.04958 128.287C2.06083 128.203 2.18029 128.134 2.32772 128.018C7.69936 123.765 13.3386 119.861 19.2106 116.33C20.0548 115.908 20.8593 115.504 21.6259 115.12C21.0897 114.768 20.579 114.432 20.093 114.111Z" fill="#27A376"/>
<path fill-rule="evenodd" clip-rule="evenodd" d="M68.6414 22.3574C65.9699 22.9474 64.2511 23.3552 64.2542 23.3712C14.6154 34.7361 9.53343 35.3851 8.96187 37.3476C8.89057 37.5926 8.88953 37.8581 8.88086 38.1674C8.66372 45.8958 9.69374 77.3068 10.3273 96.6288C10.438 100.005 10.5366 103.013 10.6144 105.46C10.689 107.797 10.7191 107.817 25.5971 117.566C27.9975 119.139 30.7842 120.966 34.0201 123.095C70.2896 146.969 72.2991 148.604 73.5566 148.151C73.6605 148.113 73.7593 148.061 73.8718 148.007C74.6096 147.65 151.41 105.555 151.623 104.276C151.651 104.103 151.682 103.95 151.682 103.799C151.685 102.263 148.653 100.722 110.676 77.0253C108.727 75.8088 107.187 74.8921 105.973 74.1689C101.988 71.7955 101.505 71.5078 101.511 69.5553C101.512 69.34 101.513 69.0441 101.515 68.6751C101.53 65.3704 101.572 56.2033 101.37 46.553C100.985 46.6743 100.575 46.7914 100.138 46.9024C100.228 52.382 100.246 57.4944 100.259 60.9596C100.266 62.8518 100.271 64.2529 100.285 64.9545C100.394 70.5457 100.467 71.356 100.129 71.6022C100.057 71.6536 99.9688 71.6804 99.8593 71.721C94.6588 73.6458 58.9508 87.8813 58.6205 88.0136C16.884 104.676 12.4084 106.849 11.9602 106.208C11.864 106.07 11.9534 105.803 11.8995 105.521C11.7491 104.737 10.2193 50.5647 10.2193 50.5381C10.1713 47.2619 10.0875 44.7876 10.024 42.9115C9.82749 37.1141 9.82454 37.0291 11.6729 36.65C17.6773 35.4189 27.4521 33.1293 38.3058 30.5869C48.1916 28.2713 58.9725 25.7459 68.6145 23.6199C68.6121 23.1955 68.6213 22.7747 68.6414 22.3574ZM42.8549 126.608C58.2672 136.8 73.1476 146.641 73.8908 146.187L73.888 146.184C81.1828 141.731 103.74 129.334 122.46 119.048C137.61 110.723 150.245 103.78 150.239 103.548C150.239 103.537 150.238 103.528 150.237 103.518C150.205 103.209 149.481 102.969 124.218 87.0683C102.827 73.6094 101.656 72.3143 100.873 72.5179C100.805 72.5357 100.74 72.5651 100.664 72.5987C95.1443 75.0487 52.405 91.9271 24.9849 102.756C20.6027 104.486 16.6118 106.063 13.2265 107.4C19.6896 111.288 31.4187 119.044 42.8549 126.608Z" fill="#111827"/>
<path fill-rule="evenodd" clip-rule="evenodd" d="M68.9501 27.5156C64.256 28.6731 60.51 29.6739 59.5363 29.9349C59.5424 29.9588 54.4866 31.1355 47.8011 32.6915C37.9724 34.9791 24.6212 38.0863 18.6546 39.5554C15.9892 40.2122 15.8407 40.3988 15.8283 43.1795C15.8064 48.5152 15.8283 49.5271 16.4794 72.3169C17.1176 94.6774 16.9258 96.4119 17.686 97.1096C17.7785 97.1944 17.8852 97.2639 18.0092 97.3533C18.0262 97.3657 18.0428 97.3781 18.0593 97.3895C19.3624 98.3415 19.5221 98.4586 95.2757 68.6186C95.8069 68.4087 96.1915 68.2966 96.4647 68.0581C97.4547 67.1964 97.0073 64.685 96.8931 49.9526C96.8892 49.4851 96.8759 48.6375 96.8502 47.5239C96.5085 47.5678 96.1686 47.605 95.8297 47.6358C95.8973 50.5188 95.943 53.7535 95.9601 57.3826C96.0001 65.7679 96.102 66.8813 95.645 67.2054C95.5565 67.2683 95.4461 67.3015 95.3109 67.3525C25.8127 93.4389 18.7669 97.2182 18.2067 96.4242C18.1008 96.2738 18.2268 95.9606 18.2063 95.6027C18.2063 95.5951 18.0459 89.6853 17.8322 81.8127C17.4056 66.0925 16.7665 42.5449 16.7679 42.5283C16.7754 42.0087 16.7541 41.6584 16.8896 41.3866C17.3325 40.4983 19.4491 40.4446 29.7144 38.0446C39.2224 35.8216 47.6946 33.8023 55.1124 32.0343C60.3237 30.7923 65.0147 29.6742 69.1785 28.6967C69.0927 28.3064 69.0165 27.9127 68.9501 27.5156Z" fill="#111827"/>
<path d="M64.2991 132.652C63.4242 132.262 56.4492 127.897 54.4454 126.649C53.1545 125.844 51.1554 128.536 122.425 91.7271C123.46 91.1921 123.046 91.2207 131.175 95.9452C133.518 97.3065 136.35 95.2122 90.4236 119.201C65.7936 132.069 65.945 132.06 64.2991 132.652ZM118.549 103.298C117.883 102.743 117.774 102.786 111.854 98.9191C111.111 98.4336 111.673 98.5431 84.8527 111.824C92.1533 117.345 91.8134 117.337 92.7378 116.845L118.549 103.298ZM65.1139 121.682C73.1104 127.44 72.5325 127.421 73.4169 126.959C90.9176 117.809 90.5664 118.003 90.8777 117.725C83.2573 112.283 83.8789 112.313 82.9479 112.775L65.1139 121.682ZM130.73 96.9029C123.037 92.64 123.445 92.5125 122.435 93.0418C120.472 94.0689 122.19 93.1503 112.937 97.8767C120.098 102.708 119.741 102.691 120.292 102.399L130.73 96.9029ZM55.9847 126.291C64.2229 131.544 64.2067 131.526 64.2305 131.544C64.6646 131.94 64.3581 131.777 71.7234 127.868C64.3562 122.728 64.0658 121.834 61.7174 123.279C59.922 124.383 57.921 125.146 55.9847 126.291Z" fill="#111827"/>
<path d="M44.0977 113.006C38.3098 115.687 38.2565 116.01 37.2046 115.315C28.0249 109.25 26.4285 109.115 28.6932 108.119C43.8768 101.447 65.4843 92.2822 99.1464 77.8876C99.9727 77.5335 99.5272 77.5449 108.499 82.3514C109.57 82.9263 112.554 81.2947 44.0977 113.006ZM40.7068 104.136C41.3256 104.699 43.1734 105.814 48.4881 109.531C49.124 109.975 48.6785 109.956 68.0394 100.875C60.675 95.1133 60.8178 95.5121 60.2505 95.7587L40.7068 104.136ZM99.0988 86.4914C92.0848 81.9373 92.7854 81.8325 91.8535 82.2371L76.6669 88.7666C77.2705 89.3435 76.6764 88.7828 83.2478 93.3617C83.839 93.7767 83.4192 93.7463 99.0988 86.4914ZM81.9798 94.4031C80.7822 93.4235 78.6841 91.9947 75.8387 89.8261C75.0534 89.2283 75.458 89.1455 65.6985 93.4435C64.527 93.8805 63.3866 94.3955 62.2848 94.9867C64.6371 96.6783 66.9237 98.3185 69.2046 99.972C69.6967 100.324 69.3416 100.285 81.9817 94.4031H81.9798ZM29.3005 108.968C38.7296 114.861 38.1822 114.834 38.959 114.462C42.448 112.791 43.5189 112.298 47.5266 110.419C44.7441 108.353 42.8535 107.14 40.7592 105.454C39.2361 104.222 39.4598 104.669 29.3024 108.965L29.3005 108.968ZM107 82.8645C99.67 78.5416 100.056 78.7149 99.4501 78.9767C93.7174 81.4518 95.6689 80.5788 93.725 81.4841C100.605 85.9174 100.073 86.0668 100.69 85.7822L107 82.8645Z" fill="#111827"/>
<path d="M51.3154 124.213C50.7337 123.898 51.3011 124.232 40.9524 117.755C40.2289 117.302 39.9052 117.589 47.8388 113.842C111.985 83.5528 110.516 83.5623 112.551 84.7999C122.672 90.9524 123.667 88.6667 113.97 93.4522C73.1856 113.578 54.8947 122.605 51.3154 124.213ZM64.2781 107.285C72.1013 112.293 71.8624 113.237 73.0733 112.635L93.4879 102.521C86.1227 97.3628 86.2378 96.8954 84.5348 97.7179C79.0868 100.35 75.7844 101.843 64.2781 107.285ZM42.8382 117.481C43.4094 117.936 46.5508 119.837 51.4544 122.977C52.0008 123.327 51.6181 123.322 70.8838 113.684C68.3249 111.761 65.8574 109.917 63.4081 108.052C62.7027 107.514 42.8677 117.468 42.8382 117.481ZM107.462 95.6407C99.7318 90.5383 100.417 90.2955 99.6357 90.6601C86.8604 96.6574 87.2031 96.2033 87.9266 96.7212C95.051 101.842 94.7169 101.928 95.29 101.646L107.462 95.6407ZM101.198 89.9461C109.163 94.4698 108.554 95.1267 109.585 94.6107L119.098 89.9271C110.653 85.1093 111.111 85.1321 110.442 85.4872C108.25 86.6514 105.254 88.0308 101.198 89.9461Z" fill="#111827"/>
<path d="M121.983 113.396C114.419 109.233 114.384 109.41 114.653 108.859C114.969 108.201 115.019 108.316 122.586 112.422C123.86 113.113 123.856 113.831 122.612 114.538C115.279 118.7 107.903 122.783 100.486 126.789C93.6202 130.49 93.5755 130.744 92.3113 129.931C85.3858 125.486 85.481 125.401 85.7647 124.981C86.077 124.517 86.056 124.457 92.7368 128.84C93.8459 129.567 93.0453 129.431 107.246 121.543C116.46 116.424 121.549 113.747 121.983 113.396Z" fill="#111827"/>
<path d="M48.2013 48.347C47.8643 37.052 47.7501 37.1863 49.4922 36.6122C51.2342 36.0382 52.1672 35.8374 66.1609 32.8749C68.3618 32.4084 68.4399 31.1109 68.9501 51.2904C69.0244 54.2215 67.6174 52.7479 51.0867 58.2549C47.9319 59.3049 48.4602 57.0583 48.2013 48.347ZM49.4864 47.5017C49.4864 57.2059 49.1219 57.3515 50.4717 57.1164C51.8997 56.8708 52.5794 56.3444 66.6093 52.6098C69.1491 51.934 67.4479 51.9359 67.3213 34.7921C67.3099 33.2509 67.2985 33.625 57.936 35.6955C49.4712 37.569 49.1209 37.2596 49.0971 38.8836C49.0581 41.7604 49.2913 44.6277 49.4864 47.5017Z" fill="#111827"/>
<path d="M57.6781 45.1223C55.959 45.5658 54.216 45.9113 52.4576 46.1571C51.7912 46.2523 51.6247 45.9914 51.8065 45.3079C53.1345 40.3045 60.6244 44.3703 57.6781 45.1223Z" fill="#111827"/>
<path d="M54.0827 42.3786C51.8237 42.3586 51.9694 38.7992 54.7396 38.8125C56.9757 38.824 56.8824 42.4052 54.0827 42.3786Z" fill="#111827"/>
<path d="M65.233 36.668C66.5277 36.7156 66.7562 37.6875 59.4204 38.7984C58.8549 38.8841 57.0224 38.1435 65.233 36.668Z" fill="#111827"/>
<path d="M63.7298 38.9883C64.1953 39.0073 64.5199 38.9331 64.5703 39.3015C64.6151 39.6375 64.3238 39.7556 64.0677 39.8155C59.6744 40.8303 59.3641 40.976 59.2556 40.3867C59.1471 39.7974 59.7887 39.8346 63.7298 38.9883Z" fill="#111827"/>
<path d="M55.1554 54.1471C54.094 53.8453 54.3206 53.8044 53.4829 54.4964C53.4075 54.5588 53.3161 54.5987 53.2192 54.6117C53.1223 54.6247 53.0236 54.6104 52.9344 54.5703C52.8453 54.5301 52.7692 54.4659 52.7146 54.3847C52.6601 54.3035 52.6294 54.2086 52.6261 54.1109C52.5861 53.0066 52.6946 53.2113 51.776 52.6268C51.6935 52.5744 51.6272 52.5 51.5848 52.4119C51.5424 52.3239 51.5255 52.2256 51.536 52.1285C51.5465 52.0313 51.584 51.939 51.6443 51.862C51.7045 51.7851 51.785 51.7265 51.8769 51.6929C52.9145 51.3121 52.7527 51.4797 53.025 50.4268C53.0497 50.3323 53.1004 50.2465 53.1713 50.1792C53.2421 50.1119 53.3305 50.0658 53.4261 50.046C53.5219 50.0262 53.6212 50.0336 53.7129 50.0672C53.8047 50.1009 53.8853 50.1595 53.9455 50.2364C54.6281 51.1046 54.4215 51.0037 55.5029 50.9371C55.6006 50.931 55.698 50.9523 55.7842 50.9987C55.8704 51.045 55.9419 51.1145 55.9906 51.1994C56.0393 51.2843 56.0633 51.3812 56.0599 51.4789C56.0565 51.5768 56.0258 51.6717 55.9713 51.7529C55.3544 52.6696 55.3868 52.4402 55.7875 53.4521C55.823 53.5431 55.8323 53.6421 55.8145 53.7382C55.7967 53.8342 55.7524 53.9233 55.6867 53.9954C55.621 54.0677 55.5365 54.1201 55.4426 54.1469C55.3488 54.1737 55.2493 54.1737 55.1554 54.1471Z" fill="#27A376"/>
<path d="M71.1788 42.004C71.4035 49.5092 70.9475 51.4426 73.6634 50.5373C81.1613 48.0392 85.047 47.2092 87.0365 46.6142L85.8121 46.0054C74.9122 48.9257 74.3212 49.3558 73.138 49.5606C71.9756 49.7634 72.2907 49.6368 72.2907 41.2786C72.1222 38.8035 71.9204 36.3332 71.9509 33.8524L71.0844 33.3145C70.9275 34.5089 71.026 36.9027 71.1788 42.004Z" fill="#27A376"/>
<path d="M74.2858 39.3873C74.1287 39.9776 74.2753 40.1994 74.8465 40.1213C75.1352 40.0808 75.4236 40.0372 75.7113 39.9904L74.5675 38.6523C74.4543 38.8671 74.3591 39.1112 74.2858 39.3873Z" fill="#27A376"/>
<path d="M77.1714 47.0045C76.2623 46.7446 76.4584 46.7027 75.7292 47.3063C75.6641 47.3597 75.5854 47.3938 75.502 47.405C75.4185 47.416 75.3336 47.4036 75.2569 47.3691C75.18 47.3345 75.1144 47.2793 75.0674 47.2095C75.0203 47.1397 74.9936 47.0582 74.9905 46.974C74.9562 46.0287 75.0571 46.2039 74.2594 45.6965C74.1884 45.6513 74.1315 45.5871 74.095 45.5112C74.0585 45.4353 74.0441 45.3508 74.0532 45.2671C74.0623 45.1834 74.0946 45.1039 74.1466 45.0377C74.1985 44.9714 74.2679 44.9209 74.347 44.8921C75.2352 44.5684 75.1 44.7169 75.3361 43.8021C75.3569 43.7205 75.4002 43.6465 75.4611 43.5882C75.5219 43.5299 75.5978 43.4899 75.6803 43.4725C75.7626 43.4552 75.8483 43.4613 75.9274 43.4901C76.0065 43.5189 76.076 43.5693 76.1281 43.6355C76.7116 44.3799 76.5279 44.3019 77.4713 44.2391C77.5554 44.2337 77.6393 44.2521 77.7136 44.292C77.7878 44.332 77.8493 44.3918 77.8913 44.465C77.9332 44.5381 77.9537 44.6216 77.9507 44.7058C77.9477 44.79 77.9211 44.8717 77.874 44.9416C77.3475 45.727 77.3675 45.5261 77.715 46.4048C77.7459 46.4831 77.7543 46.5685 77.7393 46.6513C77.7242 46.7342 77.6862 46.8112 77.6297 46.8736C77.5731 46.936 77.5002 46.9814 77.4192 47.0045C77.3382 47.0276 77.2523 47.0276 77.1714 47.0045Z" fill="#27A376"/>
<path d="M23.9218 78.8003C23.6096 67.9775 23.6505 68.0023 25.3973 67.3074C27.2498 66.5705 28.5959 66.2535 43.3036 62.3286C45.851 61.6489 45.7321 61.292 45.9539 80.3148C45.99 83.4562 46.1442 81.9521 28.5217 89.1527C23.1783 91.3356 24.2588 90.4874 23.9218 78.8003ZM25.3021 78.7603C25.5382 88.851 24.9261 88.8757 26.1399 88.7225C26.8224 88.6368 27.2118 88.3969 29.7287 87.4202C45.5607 81.2791 45.0771 82.5243 44.9667 80.0492C44.1737 62.3896 45.1971 62.8284 43.3093 63.3548C37.5776 64.9503 29.3042 67.2045 26.2512 68.088C24.6148 68.562 25.0651 68.6268 25.3021 78.7603Z" fill="#111827"/>
<path d="M34.9911 74.8676C34.8788 75.4464 34.7645 75.4016 29.959 76.7525C28.5045 77.1618 27.6011 77.3941 27.899 76.3098C29.1299 71.8213 35.2462 73.5501 34.9911 74.8676Z" fill="#111827"/>
<path d="M30.2326 72.998C27.8527 72.9552 28.4496 69.1274 31.3654 69.1902C33.8357 69.2511 33.1884 73.0523 30.2326 72.998Z" fill="#111827"/>
<path d="M36.2781 68.8449C35.4547 68.9039 35.4766 68.3184 36.0411 68.1185C45.4531 64.8019 45.4321 66.7753 36.2781 68.8449Z" fill="#111827"/>
<path d="M36.7132 70.801C35.7908 70.8143 35.8917 70.2403 36.3543 70.0023C37.8952 69.4289 39.4848 68.9955 41.1036 68.7077C41.4244 68.6334 43.6073 69.1874 36.7132 70.801Z" fill="#111827"/>
<path d="M30.7405 85.372C29.6782 85.0693 29.9047 85.0293 29.0679 85.7214C28.9925 85.7832 28.9012 85.8223 28.8044 85.8356C28.7075 85.848 28.6091 85.8337 28.5201 85.7937C28.431 85.7537 28.3549 85.6899 28.3004 85.609C28.2458 85.5272 28.2149 85.4329 28.2112 85.3358C28.1712 84.2315 28.2797 84.4362 27.3611 83.8517C27.2786 83.7994 27.2124 83.7241 27.17 83.6366C27.1277 83.548 27.1109 83.45 27.1215 83.3529C27.1321 83.2558 27.1697 83.1634 27.23 83.0863C27.2904 83.0092 27.3711 82.9512 27.463 82.9178C28.4996 82.5371 28.3388 82.7037 28.6053 81.6517C28.63 81.5565 28.6807 81.4709 28.7516 81.4042C28.8225 81.3366 28.9108 81.29 29.0065 81.271C29.1022 81.251 29.2015 81.2576 29.2933 81.2919C29.385 81.3252 29.4656 81.3842 29.5258 81.4613C30.2084 82.3295 30.0018 82.2286 31.0842 82.162C31.1818 82.1553 31.2791 82.1763 31.3652 82.2229C31.4514 82.2696 31.5228 82.3391 31.5714 82.4238C31.62 82.5085 31.6439 82.6056 31.6405 82.7027C31.637 82.8007 31.6061 82.895 31.5516 82.9769C30.9357 83.8936 30.9671 83.6651 31.3688 84.6771C31.4039 84.7675 31.413 84.8655 31.3954 84.9617C31.3777 85.0569 31.3338 85.1454 31.2687 85.2178C31.2036 85.2901 31.1197 85.3425 31.0264 85.3691C30.9331 85.3967 30.8342 85.3977 30.7405 85.372Z" fill="#27A376"/>
<path d="M36.3752 83.7296C35.3128 83.4268 35.5403 83.3869 34.7026 84.0789C34.6271 84.1408 34.5358 84.1798 34.4391 84.1932C34.3423 84.2055 34.2438 84.1913 34.1547 84.1513C34.0657 84.1113 33.9896 84.0475 33.935 83.9666C33.8805 83.8857 33.8496 83.7905 33.8458 83.6934C33.8068 82.5891 33.9153 82.7938 32.9967 82.2093C32.9141 82.1569 32.848 82.0827 32.8055 81.9942C32.7631 81.9066 32.7462 81.8076 32.7567 81.7105C32.7672 81.6134 32.8047 81.521 32.8649 81.4439C32.9252 81.3678 33.0058 81.3087 33.0976 81.2754C34.1352 80.8946 33.9734 81.0612 34.2456 80.0093C34.2702 79.9141 34.3207 79.8284 34.3916 79.7613C34.4624 79.694 34.5506 79.6479 34.6463 79.6281C34.742 79.6083 34.8413 79.6156 34.9329 79.6493C35.0247 79.683 35.1051 79.7416 35.1652 79.8189C35.8478 80.6871 35.6412 80.5862 36.7236 80.5196C36.8212 80.5129 36.9187 80.5339 37.005 80.5805C37.0912 80.6262 37.1628 80.6957 37.2116 80.7814C37.2604 80.8661 37.2844 80.9622 37.2809 81.0603C37.2774 81.1583 37.2467 81.2526 37.1919 81.3344C36.5751 82.2512 36.6074 82.0218 37.0082 83.0346C37.0438 83.1251 37.0531 83.225 37.0353 83.3212C37.0175 83.4164 36.9732 83.5058 36.9074 83.5782C36.8415 83.6505 36.7568 83.7029 36.6628 83.7296C36.5688 83.7562 36.4691 83.7562 36.3752 83.7296Z" fill="#27A376"/>
<path d="M71.8108 62.7508C71.9136 53.7072 71.4016 53.3521 73.0742 52.8019C77.3713 51.3883 77.3702 51.4473 87.0554 48.8989C89.9636 48.1373 89.5258 47.014 89.8781 64.6062C89.9235 65.0576 89.8113 65.5108 89.5606 65.8888C89.3098 66.2669 88.9359 66.5466 88.5025 66.6805C87.3601 67.166 73.8347 72.4208 73.7128 72.4455C71.6242 72.8577 72.1964 73.0986 71.8241 65.1278C71.7775 64.1349 71.8032 63.4438 71.8108 62.7508ZM72.9533 62.6556C73.136 71.4993 72.5438 71.8353 74.2573 71.1575C89.2773 65.2135 89.1554 66.2264 89.0602 64.3406C88.2987 49.2045 89.3687 49.1845 87.639 49.6614L73.7928 53.4692C72.3487 53.8681 72.7848 54.4317 72.9552 62.6518L72.9533 62.6556Z" fill="#111827"/>
<path d="M78.4679 58.1465C79.2866 58.1465 80.9773 58.7177 80.8678 59.4707C80.7859 60.0295 80.5213 59.999 76.6554 61.0604C75.7501 61.3098 75.3684 61.4412 75.1409 61.1394C74.7382 60.6025 75.6663 58.1455 78.4679 58.1465Z" fill="#111827"/>
<path d="M77.1275 57.7696C75.0531 57.7991 75.4901 54.5082 77.8586 54.5215C79.8443 54.5329 79.5178 57.7325 77.1275 57.7696Z" fill="#111827"/>
<path d="M86.9252 52.1152C87.6582 52.1457 87.582 52.5988 87.0432 52.8083C85.3763 53.4249 83.6665 53.9188 81.9274 54.2857C81.4029 54.3866 81.183 53.8506 81.7675 53.6517C83.4546 53.0371 85.1768 52.5241 86.9252 52.1152Z" fill="#111827"/>
<path d="M82.0519 55.2716C86.3747 53.6142 86.8488 54.5805 86.0234 54.8908C80.8295 56.8242 81.5825 55.4525 82.0519 55.2716Z" fill="#111827"/>
<path d="M77.6349 68.425C76.7287 68.1651 76.9219 68.1328 76.207 68.723C76.1427 68.7762 76.0648 68.8103 75.9821 68.8214C75.8993 68.8326 75.8151 68.8205 75.7389 68.7863C75.6628 68.7521 75.5978 68.6973 75.5511 68.6281C75.5045 68.5589 75.4781 68.478 75.475 68.3945C75.4416 67.4531 75.533 67.6263 74.7496 67.1284C74.6791 67.0837 74.6226 67.0202 74.5863 66.945C74.5501 66.8698 74.5357 66.7859 74.5445 66.703C74.5535 66.62 74.5855 66.5412 74.6368 66.4754C74.6882 66.4096 74.7569 66.3595 74.8352 66.3307C75.7215 66.0061 75.5844 66.1489 75.8148 65.2493C75.8358 65.1686 75.8789 65.0952 75.9392 65.0377C75.9997 64.9801 76.075 64.9405 76.1567 64.9234C76.2383 64.9065 76.3232 64.9126 76.4016 64.9412C76.4799 64.9699 76.5488 65.0199 76.6002 65.0856C77.1799 65.829 77.0048 65.7405 77.9329 65.6834C78.0163 65.6781 78.0996 65.6964 78.1732 65.736C78.2468 65.7757 78.3077 65.8351 78.3492 65.9077C78.3908 65.9802 78.4112 66.0629 78.408 66.1464C78.405 66.23 78.3785 66.311 78.3318 66.3802C77.8063 67.1646 77.8349 66.9657 78.1757 67.831C78.2068 67.9089 78.2154 67.9939 78.2004 68.0763C78.1856 68.1588 78.1477 68.2353 78.0913 68.2973C78.0349 68.3592 77.9621 68.4041 77.8815 68.4267C77.8008 68.4493 77.7154 68.4487 77.6349 68.425Z" fill="#27A376"/>
<path d="M82.445 66.6211C81.5388 66.3612 81.732 66.3279 81.0171 66.919C80.9527 66.9721 80.8748 67.0062 80.792 67.0175C80.7093 67.0286 80.6252 67.0164 80.549 66.9822C80.4728 66.9482 80.4077 66.8933 80.3611 66.8241C80.3144 66.7549 80.2881 66.674 80.285 66.5906C80.2508 65.6491 80.3431 65.8214 79.5596 65.3245C79.4892 65.2796 79.4327 65.216 79.3966 65.1407C79.3604 65.0655 79.3459 64.9816 79.3549 64.8986C79.3637 64.8156 79.3956 64.7367 79.447 64.6708C79.4983 64.6049 79.567 64.5548 79.6453 64.5258C80.5316 64.2021 80.3945 64.3449 80.6249 63.4453C80.6456 63.3645 80.6887 63.291 80.749 63.2333C80.8094 63.1757 80.8847 63.1361 80.9663 63.1189C81.0481 63.1018 81.1329 63.1078 81.2114 63.1364C81.2898 63.165 81.3587 63.215 81.4102 63.2807C81.99 64.0241 81.8148 63.9356 82.743 63.8785C82.8264 63.8732 82.9096 63.8915 82.9832 63.9311C83.0567 63.9707 83.1178 64.0302 83.1593 64.1028C83.2008 64.1753 83.2211 64.258 83.2181 64.3415C83.215 64.425 83.1886 64.506 83.1418 64.5753C82.6164 65.3597 82.6449 65.1617 82.9857 66.027C83.0169 66.1048 83.0254 66.1898 83.0105 66.2723C82.9955 66.3547 82.9577 66.4313 82.9014 66.4933C82.8449 66.5553 82.7722 66.6001 82.6915 66.6227C82.6108 66.6453 82.5254 66.6448 82.445 66.6211Z" fill="#27A376"/>
<path d="M50.7441 59.9221C52.7223 59.1091 63.7373 56.2742 66.4276 55.5688C68.559 55.01 68.2763 54.7006 68.6171 72.4517C68.6551 74.4413 68.2753 74.1938 54.9479 79.2735C53.0231 80.0066 49.795 82.0694 49.7769 79.2411C49.6579 61.9983 48.6336 60.7903 50.7441 59.9221ZM50.7279 70.3365C50.8926 79.6914 50.3329 79.919 51.9978 79.323C53.42 78.8137 51.9578 79.2144 66.5485 73.8464C68.6656 73.0677 67.3272 72.8097 67.3519 57.2823C67.3519 55.882 67.4366 56.2418 59.3298 58.4675C49.9559 61.0378 50.5404 60.4942 50.4833 62.2753C50.3966 64.9675 50.6803 67.6482 50.7279 70.3365Z" fill="#111827"/>
<path d="M56.4274 65.5234C58.4161 65.5234 59.9335 66.9847 58.6369 67.4388C56.9611 68.0361 55.2427 68.5068 53.4964 68.8467C52.1979 69.0923 53.2984 65.5301 56.4274 65.5234Z" fill="#111827"/>
<path d="M57.2927 63.192C57.2394 65.2254 53.7057 66.0964 53.72 63.6851C53.7324 61.5632 57.3565 60.7655 57.2927 63.192Z" fill="#111827"/>
<path d="M60.3113 61.436C59.5231 61.4893 59.4936 60.9838 60.0077 60.7849C66.8094 58.1432 69.1226 59.3427 60.3113 61.436Z" fill="#111827"/>
<path d="M60.6264 63.2389C59.7944 63.2579 59.8781 62.6468 60.3808 62.464C60.8834 62.2812 64.6826 61.0104 64.8445 61.5968C64.9977 62.1489 63.7811 62.4754 60.6264 63.2389Z" fill="#111827"/>
<path d="M56.0361 75.9375C55.1299 75.6776 55.3231 75.6443 54.6082 76.2345C54.5439 76.2876 54.4659 76.3218 54.3832 76.3329C54.3004 76.3441 54.2163 76.3319 54.1401 76.2978C54.064 76.2636 53.9989 76.2088 53.9522 76.1396C53.9056 76.0704 53.8792 75.9894 53.8761 75.9061C53.8428 74.9655 53.9342 75.1378 53.1508 74.6409C53.0803 74.596 53.0239 74.5324 52.9877 74.4571C52.9514 74.3819 52.937 74.298 52.9459 74.215C52.9548 74.132 52.9867 74.0531 53.038 73.9872C53.0894 73.9213 53.1581 73.8712 53.2364 73.8422C54.1227 73.5176 53.9856 73.6613 54.216 72.7617C54.2367 72.6809 54.2798 72.6074 54.3401 72.5497C54.4005 72.4921 54.4758 72.4525 54.5575 72.4353C54.6391 72.4182 54.7241 72.4242 54.8025 72.4528C54.8809 72.4814 54.9498 72.5314 55.0014 72.5971C55.5811 73.3405 55.4059 73.252 56.3341 73.1949C56.4175 73.1897 56.5007 73.2079 56.5743 73.2475C56.6479 73.2871 56.7089 73.3466 56.7504 73.4192C56.7919 73.4917 56.8123 73.5744 56.8092 73.6579C56.8061 73.7414 56.7797 73.8224 56.733 73.8917C56.2075 74.6761 56.236 74.4781 56.5768 75.3434C56.6079 75.4212 56.6165 75.5062 56.6016 75.5887C56.5867 75.6712 56.5489 75.7477 56.4924 75.8097C56.436 75.8717 56.3633 75.9165 56.2826 75.9391C56.2019 75.9617 56.1165 75.9612 56.0361 75.9375Z" fill="#27A376"/>
<path d="M60.8461 74.1321C59.9399 73.8723 60.1331 73.8389 59.4182 74.4301C59.3541 74.4831 59.2766 74.5172 59.1941 74.5285C59.1118 74.5399 59.0278 74.5281 58.9517 74.4944C58.8758 74.4606 58.8107 74.4064 58.7637 74.3377C58.7168 74.269 58.69 74.1886 58.6862 74.1055C58.6519 73.164 58.7442 73.3373 57.9608 72.8394C57.8904 72.7945 57.8339 72.7309 57.7977 72.6557C57.7615 72.5804 57.747 72.4965 57.756 72.4135C57.7649 72.3305 57.7968 72.2516 57.8481 72.1858C57.8995 72.1199 57.9682 72.0696 58.0464 72.0407C58.9327 71.717 58.7956 71.8598 59.026 70.9602C59.0469 70.8795 59.0901 70.8061 59.1504 70.7486C59.2109 70.691 59.2862 70.6514 59.3678 70.6344C59.4495 70.6174 59.5343 70.6235 59.6128 70.6522C59.6911 70.6808 59.76 70.7308 59.8114 70.7965C60.3911 71.54 60.2159 71.4514 61.1441 71.3934C61.2276 71.3884 61.3108 71.4068 61.3843 71.4466C61.4578 71.4864 61.5187 71.5459 61.5602 71.6184C61.6017 71.691 61.6221 71.7738 61.619 71.8573C61.616 71.9408 61.5896 72.0218 61.543 72.0912C61.0175 72.8746 61.046 72.6766 61.3868 73.5419C61.417 73.6196 61.4248 73.704 61.4094 73.7859C61.394 73.8677 61.3561 73.9436 61.2998 74.005C61.2436 74.0664 61.1713 74.1108 61.0912 74.1333C61.011 74.1557 60.9261 74.1554 60.8461 74.1321Z" fill="#27A376"/>
<path d="M65.4576 72.5288C64.5513 72.2689 64.7455 72.2356 64.0296 72.8267C63.9654 72.88 63.8875 72.9142 63.8048 72.9254C63.7222 72.9367 63.6379 72.9245 63.5619 72.8903C63.4857 72.856 63.4207 72.8012 63.3741 72.7319C63.3276 72.6627 63.3014 72.5817 63.2985 72.4983C63.2643 71.5568 63.3557 71.7301 62.5722 71.2322C62.5018 71.1875 62.4453 71.1238 62.4091 71.0486C62.373 70.9733 62.3586 70.8894 62.3676 70.8064C62.3766 70.7235 62.4086 70.6447 62.4601 70.5789C62.5117 70.5132 62.5805 70.4631 62.6588 70.4345C63.5441 70.1098 63.408 70.2526 63.6384 69.353C63.6591 69.2723 63.7021 69.1989 63.7624 69.1412C63.8227 69.0836 63.898 69.044 63.9797 69.027C64.0613 69.01 64.1461 69.0161 64.2244 69.0448C64.3028 69.0735 64.3715 69.1236 64.4228 69.1893C65.0025 69.9328 64.8274 69.8442 65.7555 69.7862C65.8391 69.781 65.9224 69.7993 65.9961 69.839C66.0697 69.8787 66.1308 69.9382 66.1724 70.0108C66.214 70.0834 66.2345 70.1662 66.2314 70.2499C66.2285 70.3335 66.2021 70.4146 66.1554 70.484C65.6299 71.2674 65.6575 71.0694 65.9983 71.9347C66.0294 72.0126 66.038 72.0976 66.023 72.1801C66.0082 72.2625 65.9703 72.3391 65.9139 72.401C65.8575 72.463 65.7848 72.5079 65.7041 72.5305C65.6234 72.553 65.538 72.5525 65.4576 72.5288Z" fill="#27A376"/>
<path d="M23.9656 42.8053C25.1261 42.2703 24.9442 42.3617 41.5996 38.7557C42.8448 38.4863 43.733 38.4197 43.8472 39.7372C44.3184 45.1633 44.4803 52.3906 44.5326 57.832C44.5555 60.1795 44.8182 59.6292 28.9853 64.1567C26.5626 64.8498 23.2107 66.6452 23.1879 63.6665C23.0375 43.585 22.293 43.5755 23.9656 42.8053ZM24.2226 53.9718C24.3683 64.2853 23.8419 64.1758 25.2945 63.9978C26.1703 63.8892 28.2656 62.9506 42.1232 59.277C44.6992 58.5935 42.98 58.5059 42.98 40.7482C42.98 39.1565 43.0104 39.4364 33.5889 41.5983C21.8475 44.2923 24.0437 41.1804 24.2226 53.9718Z" fill="#111827"/>
<path d="M33.5223 50.8782C33.4271 51.5103 33.1977 51.4618 28.2523 52.4347C27.2232 52.6365 26.4436 52.746 26.692 51.7854C27.8106 47.5245 33.7451 49.4436 33.5223 50.8782Z" fill="#111827"/>
<path d="M29.1175 48.6214C26.8433 48.6309 26.9118 44.9735 29.7839 44.9088C32.1228 44.8536 32.1552 48.6081 29.1175 48.6214Z" fill="#111827"/>
<path d="M34.8188 44.8992C33.9506 44.9068 33.9373 44.3499 34.5637 44.1491C42.9808 41.4474 44.6154 43.1809 34.8188 44.8992Z" fill="#111827"/>
<path d="M35.0768 46.9003C34.3419 46.8289 34.3553 46.2102 34.9588 46.035C40.3726 44.4652 40.6391 45.4334 39.7252 45.8893C38.1992 46.3261 36.6465 46.6638 35.0768 46.9003Z" fill="#111827"/>
<path d="M29.2697 61.0311C28.2073 60.7294 28.4348 60.6885 27.5971 61.3805C27.5217 61.4428 27.4304 61.4828 27.3335 61.4958C27.2366 61.5088 27.138 61.4945 27.0488 61.4544C26.9596 61.4142 26.8834 61.35 26.829 61.2688C26.7744 61.1876 26.7438 61.0927 26.7403 60.995C26.7013 59.8917 26.8098 60.0954 25.8912 59.5118C25.8087 59.4595 25.7425 59.385 25.7001 59.297C25.6576 59.2089 25.6407 59.1107 25.6512 59.0135C25.6617 58.9164 25.6992 58.824 25.7595 58.747C25.8197 58.6701 25.9003 58.6115 25.9921 58.578C27.0297 58.1972 26.8679 58.3638 27.1402 57.3119C27.1647 57.2173 27.2153 57.1315 27.2861 57.0642C27.3569 56.9968 27.4451 56.9506 27.5408 56.9308C27.6365 56.911 27.7358 56.9183 27.8275 56.952C27.9192 56.9857 27.9997 57.0445 28.0598 57.1215C28.7423 57.9897 28.5357 57.8897 29.6181 57.8221C29.7158 57.816 29.8133 57.8373 29.8994 57.8837C29.9857 57.9301 30.0571 57.9996 30.1059 58.0845C30.1546 58.1694 30.1786 58.2662 30.1752 58.364C30.1718 58.4618 30.141 58.5566 30.0865 58.6379C29.4696 59.5547 29.502 59.3253 29.9027 60.3372C29.9381 60.4282 29.9472 60.5273 29.9293 60.6231C29.9114 60.7191 29.867 60.8082 29.8013 60.8803C29.7355 60.9524 29.6509 61.0047 29.557 61.0313C29.463 61.058 29.3636 61.058 29.2697 61.0311Z" fill="#27A376"/>
<path d="M35.3731 59.6217C34.3107 59.3199 34.5382 59.279 33.7005 59.971C33.625 60.0329 33.5337 60.0726 33.4369 60.0855C33.3401 60.0983 33.2416 60.0838 33.1525 60.0438C33.0635 60.0037 32.9875 59.9396 32.9329 59.8586C32.8783 59.7777 32.8474 59.6831 32.8437 59.5855C32.8047 58.4812 32.9132 58.6859 31.9946 58.1014C31.912 58.049 31.8458 57.9746 31.8033 57.8865C31.761 57.7985 31.744 57.7002 31.7545 57.603C31.765 57.5059 31.8026 57.4136 31.8628 57.3366C31.923 57.2597 32.0036 57.201 32.0955 57.1675C33.1321 56.7867 32.9713 56.9543 33.2378 55.9014C33.2626 55.8069 33.3132 55.7211 33.3841 55.6538C33.455 55.5865 33.5433 55.5404 33.639 55.5206C33.7346 55.5008 33.834 55.5082 33.9258 55.5418C34.0176 55.5755 34.0981 55.634 34.1584 55.711C34.8409 56.5792 34.6343 56.4783 35.7167 56.4117C35.8144 56.4056 35.9118 56.4269 35.998 56.4733C36.0842 56.5196 36.1557 56.5891 36.2044 56.674C36.2531 56.7589 36.2771 56.8558 36.2737 56.9535C36.2703 57.0513 36.2396 57.1462 36.1851 57.2275C35.5682 58.1442 35.6006 57.9148 36.0013 58.9267C36.0364 59.0174 36.0455 59.1159 36.0278 59.2114C36.0102 59.307 35.9663 59.3957 35.9012 59.4676C35.836 59.5397 35.7521 59.5923 35.6589 59.6195C35.5656 59.6467 35.4666 59.6475 35.3731 59.6217Z" fill="#27A376"/>
<path d="M41.2426 58.2135C40.1812 57.9107 40.4078 57.8708 39.57 58.5628C39.4945 58.6248 39.4031 58.6644 39.3063 58.6773C39.2093 58.69 39.1108 58.6755 39.0217 58.6354C38.9327 58.5952 38.8566 58.5309 38.8021 58.4498C38.7476 58.3687 38.7168 58.274 38.7133 58.1763C38.6743 57.073 38.7828 57.2767 37.8641 56.6932C37.7816 56.6408 37.7153 56.5664 37.673 56.4783C37.6305 56.3903 37.6136 56.292 37.6242 56.1949C37.6346 56.0977 37.6721 56.0054 37.7324 55.9284C37.7926 55.8515 37.8732 55.7929 37.965 55.7593C39.0027 55.3785 38.8408 55.5451 39.1131 54.4932C39.1379 54.3987 39.1885 54.3129 39.2594 54.2456C39.3302 54.1783 39.4186 54.1322 39.5143 54.1124C39.61 54.0926 39.7093 54.1 39.8011 54.1336C39.8929 54.1673 39.9734 54.2259 40.0336 54.3028C40.7152 55.171 40.5096 55.0711 41.591 55.0044C41.6887 54.998 41.7862 55.0192 41.8724 55.0654C41.9587 55.1117 42.0303 55.1812 42.079 55.266C42.1278 55.3508 42.1517 55.4477 42.1483 55.5455C42.1449 55.6433 42.114 55.7381 42.0594 55.8193C41.4425 56.736 41.4749 56.5066 41.8757 57.5185C41.9112 57.6096 41.9206 57.7088 41.9027 57.8049C41.8849 57.901 41.8406 57.9902 41.7748 58.0625C41.709 58.1347 41.6243 58.1872 41.5302 58.2138C41.4362 58.2405 41.3366 58.2404 41.2426 58.2135Z" fill="#27A376"/>
<path d="M136.568 55.5875C134.02 55.6608 130.406 53.9207 128.105 52.8135C120.854 49.3246 119.745 51.7597 107.461 48.3051C105.248 47.6825 102.953 47.7491 103.92 49.9662C107.289 57.6961 125.126 56.9726 135.607 73.0264C139.526 79.0237 145.232 82.3459 152.222 83.5759C153.478 83.7977 153.459 83.7663 153.966 82.5287C158.995 70.2819 160.591 70.281 159.186 69.7536C152.903 67.3965 147.796 59.8475 144.336 54.1187C140.459 47.7082 136.828 43.4292 128.756 43.293C118.052 43.1141 120.468 44.9409 117.988 42.7742C121.426 42.2186 124.904 41.9382 128.388 41.9355C146.235 41.9774 144.007 61.0308 159.951 69.0472C160.358 69.2519 160.447 69.2148 161.278 67.4013C162.085 65.6421 163.817 65.8344 167.801 67.1157C178.433 70.5351 186.478 75.3139 172.664 69.9839C172.182 69.7936 172.051 69.8945 171.911 70.3543C171.054 73.1673 166.841 84.1461 163.915 87.972C163.279 88.8031 162.594 89.1001 163.218 87.3751C164.651 83.414 170.117 71.7536 170.738 69.8469C170.849 69.5051 170.917 69.3004 170.476 69.1405C164.166 66.8473 163.432 66.7264 162.54 68.0572C159.243 73.7677 156.426 79.7409 154.113 85.9158C153.316 88.0919 152.655 90.3624 154.304 91.9398C158.338 95.8009 174.545 101.982 174.084 103.056C173.296 104.894 158.674 97.1746 156.664 95.9218C150.179 91.8731 151.237 89.7398 152.988 84.901C150.306 84.7154 147.682 84.0376 145.245 82.9019C131.768 77.2112 135.761 67.7116 115.515 58.9813C111.047 57.0545 104.957 54.8621 102.924 50.5565C101.736 48.0414 103.305 45.7967 109.403 47.5378C118.631 50.1681 121.894 48.109 129.499 52.1015C136.475 55.7713 136.035 54.9726 136.568 55.5875Z" fill="#111827"/>
<path d="M117.662 23.9201C117.62 31.2758 113.91 37.4588 112.79 38.3898C112.423 38.6963 111.993 38.4754 119.603 45.4847C122.185 47.8646 122.657 48.0978 121.664 48.4043C120.229 48.8479 113.661 47.7075 112.816 47.5381C110.941 47.1573 110.056 46.1682 107.803 43.7845C106.821 42.7478 105.6 46.1644 97.5338 47.4314C83.1297 49.6961 70.7181 40.0757 68.7952 27.0986C65.9707 8.04811 85.9694 -5.5658 103.09 2.24309C111.705 6.17276 117.026 13.2667 117.662 23.9201ZM116.279 24.1181C116.279 13.1268 107.711 2.00795 93.5527 1.591C82.2492 1.25781 70.9761 9.40655 70.1593 22.0076C69.1522 37.4616 82.7252 48.5243 97.4624 46.0549C102.688 45.2175 107.446 42.5533 110.893 38.5363C114.338 34.5193 116.246 29.4102 116.279 24.1181ZM117.94 46.8546C116.533 44.8306 114.897 42.9751 113.067 41.3246C113.002 41.2382 112.919 41.1663 112.825 41.1138C112.731 41.0612 112.626 41.0292 112.518 41.0196C112.41 41.0101 112.301 41.0234 112.2 41.0586C112.098 41.0937 112.003 41.15 111.924 41.2237C111.364 41.7778 111.639 42.1062 115.643 45.5075C116.283 46.142 117.074 46.6052 117.94 46.8546Z" fill="#111827"/>
<path d="M117.459 62.9038C117.367 63.4567 117.143 63.9793 116.806 64.427C116.204 65.3237 116.624 66.0996 116.779 66.9268C116.844 67.2743 117.078 67.1067 117.276 67.0601C117.456 66.9867 117.65 66.9527 117.845 66.9607C118.039 66.9687 118.23 67.0184 118.404 67.1063C118.578 67.1943 118.73 67.3185 118.852 67.4708C118.974 67.6229 119.061 67.7994 119.109 67.9882C119.709 69.7455 119.837 74.4749 118.965 70.1863C118.63 68.5347 118.386 67.4723 117.488 67.6084C117.148 67.6598 116.964 67.7569 117.069 68.171C118.198 72.6385 118.141 74.7985 120.115 73.224C122.231 71.5362 123.581 68.3947 122.961 64.4917C123.127 64.5658 123.274 64.6794 123.387 64.823C123.499 64.9665 123.576 65.1355 123.608 65.3151C125.442 71.3248 118.859 73.5819 123.745 75.6172C124.35 75.8685 123.753 73.4563 126.361 73.7894C127.479 73.8686 128.54 74.3097 129.384 75.046C128.708 75.84 124.658 72.9317 124.568 75.7524C124.554 76.1874 125.038 76.1132 125.298 76.2103C130.129 78.0295 131.016 75.7086 130.03 74.0074C128.617 71.5714 126.59 71.164 126.167 70.5414C126.738 69.8826 129.621 71.2382 130.87 73.8618C131.098 74.338 131.189 74.868 131.133 75.3929C131.077 75.9177 130.876 76.4166 130.553 76.834C130.23 77.2512 129.798 77.5704 129.303 77.7558C128.808 77.9412 128.273 77.9856 127.755 77.8838C126.08 77.57 124.45 77.055 122.9 76.3502C122.381 76.1412 121.934 75.7847 121.616 75.3249C121.298 74.8651 121.12 74.3221 121.107 73.7628C117.177 75.7562 117.747 74.5129 115.72 66.348C114.768 66.9991 113.862 68.0111 111.933 68.0549C109.77 68.1044 110.393 66.6269 110.655 59.2122C110.678 58.561 111.913 57.3311 111.232 66.3385C111.096 68.131 114.211 66.6555 115.282 64.8392C115.959 63.6911 116.286 62.9981 116.568 62.5411C117.258 61.4274 117.596 61.6358 117.459 62.9038Z" fill="#111827"/>
<path d="M110.142 52.1276C108.087 52.0562 105.636 50.8273 105.847 50.3437C105.989 50.019 105.982 50.1028 108.993 50.9472C111.438 51.6326 111.539 49.7458 112.108 50.3151C112.727 50.9339 111.016 52.1581 110.142 52.1276Z" fill="#111827"/>
<path d="M72.3555 24.2752C72.2061 19.392 73.8636 14.6255 77.0105 10.8885C80.1574 7.15158 84.5724 4.70706 89.4097 4.02327C110.543 0.76663 122.068 25.288 107.782 38.5136C94.5502 50.7538 72.7153 41.9292 72.3555 24.2752ZM93.2479 43.0287C112.875 43.0496 120.373 17.3202 103.099 7.49505C95.3803 3.10558 85.304 4.39644 79.3228 10.4052C66.5038 23.2813 76.4936 43.0068 93.2479 43.0258V43.0287Z" fill="#111827"/>
<path d="M101.337 13.9896C101.346 30.3014 102.35 36.254 102.112 38.6805C102.039 39.4192 102.883 39.2517 103.577 39.0127C103.54 31.7236 103.253 20.2516 102.585 12.537C102.421 10.6407 101.144 10.7359 99.3482 11.1243C84.6062 14.3152 79.0325 15.4947 76.5374 16.1097C76.2128 16.1896 76.2852 16.4076 76.0101 17.3548C75.9984 17.3936 75.998 17.4348 76.0086 17.4738C76.0194 17.5127 76.0409 17.548 76.0707 17.5753C76.1005 17.6026 76.1374 17.621 76.1772 17.6283C76.217 17.6356 76.258 17.6315 76.2957 17.6166C78.2481 16.9226 81.7323 16.6142 87.8295 15.2139C101.383 12.1019 101.335 11.7002 101.337 13.9896Z" fill="#27A376"/>
<path d="M89.5945 19.9654C88.3437 19.9749 88.3246 19.1753 89.228 18.8849C101.339 14.9905 103.693 17.4922 89.5945 19.9654Z" fill="#27A376"/>
<path d="M89.96 22.8475C88.9024 22.7447 88.9214 21.8517 89.7905 21.6004C97.5823 19.3452 97.9669 20.736 96.6446 21.3919C94.4494 22.0192 92.2171 22.5053 89.96 22.8475Z" fill="#27A376"/>
<path d="M90.3893 41.1547C88.8661 40.7188 89.2012 40.6502 87.9827 41.6545C87.8743 41.7449 87.7426 41.8029 87.6028 41.8223C87.4629 41.8416 87.3205 41.8212 87.1916 41.7636C87.0627 41.706 86.9526 41.6135 86.8737 41.4964C86.7948 41.3793 86.7502 41.2425 86.7452 41.1014C86.6881 39.5164 86.8537 39.8153 85.5238 38.9681C85.4054 38.892 85.3105 38.7844 85.25 38.6572C85.1896 38.53 85.166 38.3886 85.1818 38.2486C85.1977 38.1087 85.2524 37.9761 85.3397 37.8656C85.4271 37.7552 85.5436 37.6715 85.6761 37.6239C87.1659 37.0794 86.9337 37.3298 87.3278 35.8019C87.3629 35.6657 87.4354 35.5421 87.5372 35.4449C87.6389 35.3478 87.7657 35.2811 87.9033 35.2523C88.041 35.2235 88.184 35.2338 88.3161 35.2819C88.4482 35.33 88.5643 35.4143 88.651 35.5249C89.6286 36.7738 89.3174 36.6301 90.8947 36.533C91.0356 36.5242 91.1756 36.5548 91.2993 36.6216C91.424 36.6885 91.5268 36.7887 91.5963 36.911C91.6668 37.0334 91.701 37.1728 91.6953 37.3136C91.6906 37.4544 91.6458 37.5909 91.5668 37.7077C90.6815 39.0233 90.7234 38.6854 91.3012 40.1523C91.3526 40.2835 91.3669 40.4267 91.3422 40.5655C91.3165 40.7043 91.2527 40.8332 91.1575 40.9376C91.0623 41.0419 90.9404 41.1176 90.8043 41.156C90.6691 41.1944 90.5244 41.194 90.3893 41.1547Z" fill="#27A376"/>
<path d="M98.835 39.1285C97.3119 38.6935 97.6469 38.6249 96.4284 39.6293C96.3199 39.7186 96.1886 39.776 96.0486 39.7946C95.9096 39.8133 95.7678 39.7925 95.6393 39.7348C95.5117 39.677 95.4022 39.5846 95.3232 39.4679C95.2452 39.3512 95.2004 39.2149 95.1957 39.0743C95.1376 37.4893 95.3032 37.7882 93.9734 36.9419C93.8544 36.8663 93.7592 36.7591 93.6982 36.6323C93.6373 36.5056 93.6135 36.3643 93.6287 36.2245C93.643 36.0846 93.6973 35.9518 93.7839 35.8409C93.8705 35.73 93.9857 35.6454 94.118 35.5968C95.6079 35.0532 95.3756 35.3026 95.7697 33.7757C95.8049 33.6393 95.8773 33.5154 95.9782 33.418C96.08 33.3207 96.2076 33.2538 96.3447 33.225C96.4827 33.1961 96.6255 33.2064 96.7578 33.2549C96.8901 33.3032 97.0063 33.3877 97.0929 33.4987C98.0715 34.7476 97.7593 34.6039 99.3367 34.5068C99.4776 34.4979 99.6175 34.5287 99.7412 34.5955C99.866 34.6623 99.9688 34.7626 100.038 34.8848C100.109 35.0071 100.143 35.1466 100.137 35.2875C100.133 35.4283 100.088 35.5648 100.009 35.6815C99.1234 36.9971 99.1653 36.6592 99.7441 38.1252C99.7955 38.2563 99.8098 38.3991 99.785 38.5377C99.7593 38.6763 99.6956 38.8051 99.6013 38.9095C99.5071 39.0138 99.3852 39.0897 99.2491 39.1284C99.1139 39.1672 98.9702 39.1672 98.835 39.1285Z" fill="#27A376"/>
<path d="M79.0478 26.6991C80.4471 24.7466 82.7528 24.6485 82.3234 26.0612C81.8941 27.4739 82.5795 28.3735 83.5201 28.0756C83.684 27.9828 83.8269 27.8569 83.9395 27.7059C84.0521 27.555 84.1321 27.3823 84.1743 27.1987C84.2166 27.0152 84.2202 26.8248 84.185 26.6398C84.1497 26.4548 84.0763 26.2791 83.9694 26.1241C83.8272 25.9831 83.7332 25.8009 83.7004 25.6034C83.6678 25.4059 83.6983 25.2032 83.7874 25.0239C83.8766 24.8446 84.02 24.6981 84.1973 24.6051C84.3745 24.5121 84.5766 24.4773 84.7747 24.5058C87.1175 24.8637 89.7649 27.1198 88.7301 28.0156C87.7696 28.8467 79.9645 29.8967 79.3476 29.9652C77.16 30.208 77.8807 28.3231 79.0478 26.6991Z" fill="#27A376"/>
<path d="M83.5952 22.8124C83.2155 23.2877 82.6669 23.5981 82.0639 23.6789C81.4609 23.7595 80.85 23.6043 80.3586 23.2455C79.8525 22.8097 79.5249 22.2027 79.438 21.5404C79.3513 20.8782 79.5116 20.2072 79.8883 19.6557C81.9179 17.2035 85.5163 20.4163 83.5952 22.8124Z" fill="#27A376"/>
</svg>
